<?xml version="1.0" encoding="UTF-8"?> <svg xmlns:xlink="http://www.w3.org/1999/xlink" xmlns="http://www.w3.org/2000/svg" class="highcharts-root" style="font-family:&quot;Lucida Grande&quot;, &quot;Lucida Sans Unicode&quot;, Arial, Helvetica, sans-serif;font-size:12px;" width="906" height="478" viewBox="0 0 906 478"><desc>Created with Highstock 7.0.1</desc><defs><clipPath id="highcharts-8hg7j0p-318"><rect x="0" y="0" width="826" height="305" fill="none"></rect></clipPath><clipPath id="highcharts-8hg7j0p-330"><rect x="0" y="0" width="826" height="305" fill="none"></rect></clipPath><clipPath id="highcharts-8hg7j0p-353"><rect x="70" y="10" width="826" height="305" fill="none"></rect></clipPath></defs><rect fill="#ffffff" class="highcharts-background" x="0" y="0" width="906" height="478" rx="0" ry="0"></rect><rect fill="none" class="highcharts-plot-background" x="70" y="10" width="826" height="305"></rect><g class="highcharts-pane-group" data-z-index="0"></g><g class="highcharts-grid highcharts-xaxis-grid " data-z-index="1"><path fill="none" data-z-index="1" class="highcharts-grid-line" d="M 144.5 10 L 144.5 315" opacity="1"></path><path fill="none" data-z-index="1" class="highcharts-grid-line" d="M 219.5 10 L 219.5 315" opacity="1"></path><path fill="none" data-z-index="1" class="highcharts-grid-line" d="M 294.5 10 L 294.5 315" opacity="1"></path><path fill="none" data-z-index="1" class="highcharts-grid-line" d="M 369.5 10 L 369.5 315" opacity="1"></path><path fill="none" data-z-index="1" class="highcharts-grid-line" d="M 444.5 10 L 444.5 315" opacity="1"></path><path fill="none" data-z-index="1" class="highcharts-grid-line" d="M 520.5 10 L 520.5 315" opacity="1"></path><path fill="none" data-z-index="1" class="highcharts-grid-line" d="M 595.5 10 L 595.5 315" opacity="1"></path><path fill="none" data-z-index="1" class="highcharts-grid-line" d="M 670.5 10 L 670.5 315" opacity="1"></path><path fill="none" data-z-index="1" class="highcharts-grid-line" d="M 745.5 10 L 745.5 315" opacity="1"></path><path fill="none" data-z-index="1" class="highcharts-grid-line" d="M 820.5 10 L 820.5 315" opacity="1"></path><path fill="none" data-z-index="1" class="highcharts-grid-line" d="M 895.5 10 L 895.5 315" opacity="1"></path><path fill="none" data-z-index="1" class="highcharts-grid-line" d="M 69.5 10 L 69.5 315" opacity="1"></path></g><g class="highcharts-grid highcharts-yaxis-grid " data-z-index="1"><path fill="none" stroke="#e6e6e6" stroke-width="1" data-z-index="1" class="highcharts-grid-line" d="M 70 315.5 L 896 315.5" opacity="1"></path><path fill="none" stroke="#e6e6e6" stroke-width="1" data-z-index="1" class="highcharts-grid-line" d="M 70 254.5 L 896 254.5" opacity="1"></path><path fill="none" stroke="#e6e6e6" stroke-width="1" data-z-index="1" class="highcharts-grid-line" d="M 70 193.5 L 896 193.5" opacity="1"></path><path fill="none" stroke="#e6e6e6" stroke-width="1" data-z-index="1" class="highcharts-grid-line" d="M 70 132.5 L 896 132.5" opacity="1"></path><path fill="none" stroke="#e6e6e6" stroke-width="1" data-z-index="1" class="highcharts-grid-line" d="M 70 71.5 L 896 71.5" opacity="1"></path><path fill="none" stroke="#e6e6e6" stroke-width="1" data-z-index="1" class="highcharts-grid-line" d="M 70 9.5 L 896 9.5" opacity="1"></path></g><rect fill="none" class="highcharts-plot-border" data-z-index="1" x="70" y="10" width="826" height="305"></rect><g class="highcharts-axis highcharts-xaxis " data-z-index="2"><path fill="none" class="highcharts-tick" stroke="#ccd6eb" stroke-width="1" d="M 144.5 315 L 144.5 325" opacity="1"></path><path fill="none" class="highcharts-tick" stroke="#ccd6eb" stroke-width="1" d="M 219.5 315 L 219.5 325" opacity="1"></path><path fill="none" class="highcharts-tick" stroke="#ccd6eb" stroke-width="1" d="M 294.5 315 L 294.5 325" opacity="1"></path><path fill="none" class="highcharts-tick" stroke="#ccd6eb" stroke-width="1" d="M 369.5 315 L 369.5 325" opacity="1"></path><path fill="none" class="highcharts-tick" stroke="#ccd6eb" stroke-width="1" d="M 444.5 315 L 444.5 325" opacity="1"></path><path fill="none" class="highcharts-tick" stroke="#ccd6eb" stroke-width="1" d="M 520.5 315 L 520.5 325" opacity="1"></path><path fill="none" class="highcharts-tick" stroke="#ccd6eb" stroke-width="1" d="M 595.5 315 L 595.5 325" opacity="1"></path><path fill="none" class="highcharts-tick" stroke="#ccd6eb" stroke-width="1" d="M 670.5 315 L 670.5 325" opacity="1"></path><path fill="none" class="highcharts-tick" stroke="#ccd6eb" stroke-width="1" d="M 745.5 315 L 745.5 325" opacity="1"></path><path fill="none" class="highcharts-tick" stroke="#ccd6eb" stroke-width="1" d="M 820.5 315 L 820.5 325" opacity="1"></path><path fill="none" class="highcharts-tick" stroke="#ccd6eb" stroke-width="1" d="M 896.5 315 L 896.5 325" opacity="1"></path><path fill="none" class="highcharts-tick" stroke="#ccd6eb" stroke-width="1" d="M 69.5 315 L 69.5 325" opacity="1"></path><path fill="none" class="highcharts-axis-line" stroke="#ccd6eb" stroke-width="1" data-z-index="7" d="M 70 315.5 L 896 315.5"></path></g><g class="highcharts-axis highcharts-yaxis " data-z-index="2"><text x="24.140625" data-z-index="7" text-anchor="middle" transform="translate(0,0) rotate(270 24.140625 162.5)" class="highcharts-axis-title" style="color:#666666;fill:#666666;" y="162.5"><tspan>Frames per Second</tspan></text><path fill="none" class="highcharts-axis-line" data-z-index="7" d="M 70 10 L 70 315"></path></g><g class="highcharts-series-group" data-z-index="3"><g data-z-index="0.1" class="highcharts-series highcharts-series-0 highcharts-line-series highcharts-color-0 " transform="translate(70,10) scale(1 1)" clip-path="url(#highcharts-8hg7j0p-330)"><path fill="none" d="M 37.545454545455 287.432 L 112.63636363636 171.53199999999998 L 187.72727272727 222.52800000000002 L 262.81818181818 254.736 L 337.90909090909 283.772 L 413 284.504 L 488.09090909091 287.432 L 563.18181818182 231.8 L 638.27272727273 241.804 L 713.36363636364 238.144 L 788.45454545455 284.016" class="highcharts-graph highcharts-shadow" data-z-index="1" stroke="#000000" stroke-width="5" stroke-linejoin="round" stroke-linecap="round" stroke-opacity="0.049999999999999996" transform="translate(1, 1)"></path><path fill="none" d="M 37.545454545455 287.432 L 112.63636363636 171.53199999999998 L 187.72727272727 222.52800000000002 L 262.81818181818 254.736 L 337.90909090909 283.772 L 413 284.504 L 488.09090909091 287.432 L 563.18181818182 231.8 L 638.27272727273 241.804 L 713.36363636364 238.144 L 788.45454545455 284.016" class="highcharts-graph highcharts-shadow" data-z-index="1" stroke="#000000" stroke-width="3" stroke-linejoin="round" stroke-linecap="round" stroke-opacity="0.09999999999999999" transform="translate(1, 1)"></path><path fill="none" d="M 37.545454545455 287.432 L 112.63636363636 171.53199999999998 L 187.72727272727 222.52800000000002 L 262.81818181818 254.736 L 337.90909090909 283.772 L 413 284.504 L 488.09090909091 287.432 L 563.18181818182 231.8 L 638.27272727273 241.804 L 713.36363636364 238.144 L 788.45454545455 284.016" class="highcharts-graph highcharts-shadow" data-z-index="1" stroke="#000000" stroke-width="1" stroke-linejoin="round" stroke-linecap="round" stroke-opacity="0.15" transform="translate(1, 1)"></path><path fill="none" d="M 37.545454545455 287.432 L 112.63636363636 171.53199999999998 L 187.72727272727 222.52800000000002 L 262.81818181818 254.736 L 337.90909090909 283.772 L 413 284.504 L 488.09090909091 287.432 L 563.18181818182 231.8 L 638.27272727273 241.804 L 713.36363636364 238.144 L 788.45454545455 284.016" class="highcharts-graph" data-z-index="1" stroke="#D14648" stroke-width="2" stroke-linejoin="round" stroke-linecap="round"></path></g><g data-z-index="0.1" class="highcharts-markers highcharts-series-0 highcharts-line-series highcharts-color-0 " transform="translate(70,10) scale(1 1)" clip-path="none"><path fill="#D14648" d="M 41 287 A 4 4 0 1 1 40.99999800000017 286.99600000066664 Z" class="highcharts-point highcharts-color-0"></path><path fill="#D14648" d="M 116 172 A 4 4 0 1 1 115.99999800000016 171.99600000066667 Z" class="highcharts-point highcharts-color-0"></path><path fill="#D14648" d="M 191 223 A 4 4 0 1 1 190.99999800000018 222.99600000066667 Z" class="highcharts-point highcharts-color-0"></path><path fill="#D14648" d="M 266 255 A 4 4 0 1 1 265.9999980000002 254.99600000066667 Z" class="highcharts-point highcharts-color-0"></path><path fill="#D14648" d="M 341 284 A 4 4 0 1 1 340.9999980000002 283.99600000066664 Z" class="highcharts-point highcharts-color-0"></path><path fill="#D14648" d="M 417 285 A 4 4 0 1 1 416.9999980000002 284.99600000066664 Z" class="highcharts-point highcharts-color-0"></path><path fill="#D14648" d="M 492 287 A 4 4 0 1 1 491.9999980000002 286.99600000066664 Z" class="highcharts-point highcharts-color-0"></path><path fill="#D14648" d="M 567 232 A 4 4 0 1 1 566.9999980000001 231.99600000066667 Z" class="highcharts-point highcharts-color-0"></path><path fill="#D14648" d="M 642 242 A 4 4 0 1 1 641.9999980000001 241.99600000066667 Z" class="highcharts-point highcharts-color-0"></path><path fill="#D14648" d="M 717 238 A 4 4 0 1 1 716.9999980000001 237.99600000066667 Z" class="highcharts-point highcharts-color-0"></path><path fill="#D14648" d="M 792 284 A 4 4 0 1 1 791.9999980000001 283.99600000066664 Z" class="highcharts-point highcharts-color-0"></path></g><g data-z-index="0.1" class="highcharts-series highcharts-series-1 highcharts-line-series highcharts-color-1 " transform="translate(70,10) scale(1 1)" clip-path="url(#highcharts-8hg7j0p-330)"><path fill="none" d="M 37.545454545455 274.5 L 112.63636363636 158.844 L 187.72727272727 133.95600000000002 L 262.81818181818 202.51999999999998 L 337.90909090909 260.348 L 413 261.324 L 488.09090909091 266.448 L 563.18181818182 231.8 L 638.27272727273 216.18400000000003 L 713.36363636364 219.356 L 788.45454545455 262.544" class="highcharts-graph highcharts-shadow" data-z-index="1" stroke="#000000" stroke-width="5" stroke-linejoin="round" stroke-linecap="round" stroke-opacity="0.049999999999999996" transform="translate(1, 1)"></path><path fill="none" d="M 37.545454545455 274.5 L 112.63636363636 158.844 L 187.72727272727 133.95600000000002 L 262.81818181818 202.51999999999998 L 337.90909090909 260.348 L 413 261.324 L 488.09090909091 266.448 L 563.18181818182 231.8 L 638.27272727273 216.18400000000003 L 713.36363636364 219.356 L 788.45454545455 262.544" class="highcharts-graph highcharts-shadow" data-z-index="1" stroke="#000000" stroke-width="3" stroke-linejoin="round" stroke-linecap="round" stroke-opacity="0.09999999999999999" transform="translate(1, 1)"></path><path fill="none" d="M 37.545454545455 274.5 L 112.63636363636 158.844 L 187.72727272727 133.95600000000002 L 262.81818181818 202.51999999999998 L 337.90909090909 260.348 L 413 261.324 L 488.09090909091 266.448 L 563.18181818182 231.8 L 638.27272727273 216.18400000000003 L 713.36363636364 219.356 L 788.45454545455 262.544" class="highcharts-graph highcharts-shadow" data-z-index="1" stroke="#000000" stroke-width="1" stroke-linejoin="round" stroke-linecap="round" stroke-opacity="0.15" transform="translate(1, 1)"></path><path fill="none" d="M 37.545454545455 274.5 L 112.63636363636 158.844 L 187.72727272727 133.95600000000002 L 262.81818181818 202.51999999999998 L 337.90909090909 260.348 L 413 261.324 L 488.09090909091 266.448 L 563.18181818182 231.8 L 638.27272727273 216.18400000000003 L 713.36363636364 219.356 L 788.45454545455 262.544" class="highcharts-graph" data-z-index="1" stroke="#323232" stroke-width="2" stroke-linejoin="round" stroke-linecap="round"></path></g><g data-z-index="0.1" class="highcharts-markers highcharts-series-1 highcharts-line-series highcharts-color-1 " transform="translate(70,10) scale(1 1)" clip-path="none"><path fill="#323232" d="M 37 271 L 41 275 37 279 33 275 Z" class="highcharts-point highcharts-color-1"></path><path fill="#323232" d="M 112 155 L 116 159 112 163 108 159 Z" class="highcharts-point highcharts-color-1"></path><path fill="#323232" d="M 187 130 L 191 134 187 138 183 134 Z" class="highcharts-point highcharts-color-1"></path><path fill="#323232" d="M 262 199 L 266 203 262 207 258 203 Z" class="highcharts-point highcharts-color-1"></path><path fill="#323232" d="M 337 256 L 341 260 337 264 333 260 Z" class="highcharts-point highcharts-color-1"></path><path fill="#323232" d="M 413 257 L 417 261 413 265 409 261 Z" class="highcharts-point highcharts-color-1"></path><path fill="#323232" d="M 488 262 L 492 266 488 270 484 266 Z" class="highcharts-point highcharts-color-1"></path><path fill="#323232" d="M 563 228 L 567 232 563 236 559 232 Z" class="highcharts-point highcharts-color-1"></path><path fill="#323232" d="M 638 212 L 642 216 638 220 634 216 Z" class="highcharts-point highcharts-color-1"></path><path fill="#323232" d="M 713 215 L 717 219 713 223 709 219 Z" class="highcharts-point highcharts-color-1"></path><path fill="#323232" d="M 788 259 L 792 263 788 267 784 263 Z" class="highcharts-point highcharts-color-1"></path></g><g data-z-index="0.1" class="highcharts-series highcharts-series-2 highcharts-line-series highcharts-color-2 " transform="translate(70,10) scale(1 1)" clip-path="url(#highcharts-8hg7j0p-330)"><path fill="none" d="M 37.545454545455 192.02800000000002 L 112.63636363636 158.6 L 187.72727272727 22.204000000000008 L 262.81818181818 123.464 L 337.90909090909 177.876 L 413 204.228 L 488.09090909091 188.12400000000002 L 563.18181818182 231.8 L 638.27272727273 178.85199999999998 L 713.36363636364 61.244 L 788.45454545455 207.4" class="highcharts-graph" data-z-index="1" stroke="#9e9e9e" stroke-width="2" stroke-linejoin="round" stroke-linecap="round"></path></g><g data-z-index="0.1" class="highcharts-markers highcharts-series-2 highcharts-line-series highcharts-color-2 " transform="translate(70,10) scale(1 1)" clip-path="none"><path fill="#9e9e9e" d="M 33 188 L 41 188 41 196 33 196 Z" class="highcharts-point highcharts-color-2"></path><path fill="#9e9e9e" d="M 108 155 L 116 155 116 163 108 163 Z" class="highcharts-point highcharts-color-2"></path><path fill="#9e9e9e" d="M 183 18 L 191 18 191 26 183 26 Z" class="highcharts-point highcharts-color-2"></path><path fill="#9e9e9e" d="M 258 119 L 266 119 266 127 258 127 Z" class="highcharts-point highcharts-color-2"></path><path fill="#9e9e9e" d="M 333 174 L 341 174 341 182 333 182 Z" class="highcharts-point highcharts-color-2"></path><path fill="#9e9e9e" d="M 409 200 L 417 200 417 208 409 208 Z" class="highcharts-point highcharts-color-2"></path><path fill="#9e9e9e" d="M 484 184 L 492 184 492 192 484 192 Z" class="highcharts-point highcharts-color-2"></path><path fill="#9e9e9e" d="M 559 228 L 567 228 567 236 559 236 Z" class="highcharts-point highcharts-color-2"></path><path fill="#9e9e9e" d="M 634 175 L 642 175 642 183 634 183 Z" class="highcharts-point highcharts-color-2"></path><path fill="#9e9e9e" d="M 709 57 L 717 57 717 65 709 65 Z" class="highcharts-point highcharts-color-2"></path><path fill="#9e9e9e" d="M 784 203 L 792 203 792 211 784 211 Z" class="highcharts-point highcharts-color-2"></path></g></g><text x="453" text-anchor="middle" class="highcharts-title" data-z-index="4" style="color:#333333;font-size:18px;fill:#333333;" y="24"></text><text x="453" text-anchor="middle" class="highcharts-subtitle" data-z-index="4" style="color:#666666;fill:#666666;" y="24"></text><g class="highcharts-legend" data-z-index="7" transform="translate(220,438)"><rect fill="none" class="highcharts-legend-box" rx="0" ry="0" x="0" y="0" width="466" height="25" visibility="visible"></rect><g data-z-index="1"><g><g class="highcharts-legend-item highcharts-line-series highcharts-color-0 highcharts-series-0" data-z-index="1" transform="translate(8,3)"><path fill="none" d="M 0 11 L 16 11" class="highcharts-graph" stroke="#D14648" stroke-width="2"></path><path fill="#D14648" d="M 12 11 A 4 4 0 1 1 11.999998000000167 10.996000000666664 Z" class="highcharts-point"></path><text x="21" style="color:#333333;cursor:pointer;font-size:12px;font-weight:bold;fill:#333333;" text-anchor="start" data-z-index="2" y="15"><tspan>2013 13-inch MBP</tspan></text></g><g class="highcharts-legend-item highcharts-line-series highcharts-color-1 highcharts-series-1" data-z-index="1" transform="translate(163.921875,3)"><path fill="none" d="M 0 11 L 16 11" class="highcharts-graph" stroke="#323232" stroke-width="2"></path><path fill="#323232" d="M 8 7 L 12 11 8 15 4 11 Z" class="highcharts-point"></path><text x="21" y="15" style="color:#333333;cursor:pointer;font-size:12px;font-weight:bold;fill:#333333;" text-anchor="start" data-z-index="2"><tspan>2016 13-inch MBP</tspan></text></g><g class="highcharts-legend-item highcharts-line-series highcharts-color-2 highcharts-series-2" data-z-index="1" transform="translate(319.84375,3)"><path fill="none" d="M 0 11 L 16 11" class="highcharts-graph" stroke="#9e9e9e" stroke-width="2"></path><path fill="#9e9e9e" d="M 4 7 L 12 7 12 15 4 15 Z" class="highcharts-point"></path><text x="21" y="15" style="color:#333333;cursor:pointer;font-size:12px;font-weight:bold;fill:#333333;" text-anchor="start" data-z-index="2"><tspan>2014 27-inch iMac</tspan></text></g></g></g></g><g class="highcharts-axis-labels highcharts-xaxis-labels " data-z-index="7"><text x="110.13817940980614" style="color:#666666;cursor:default;font-size:11px;fill:#666666;" text-anchor="end" transform="translate(0,0) rotate(-45 110.13817940980614 331)" y="331" opacity="1"><tspan>Civilization 6</tspan></text><text x="185.22908850071616" style="color:#666666;cursor:default;font-size:11px;fill:#666666;" text-anchor="end" transform="translate(0,0) rotate(-45 185.22908850071616 331)" y="331" opacity="1"><tspan>Into the Breach</tspan></text><text x="260.3199975916261" style="color:#666666;cursor:default;font-size:11px;fill:#666666;" text-anchor="end" transform="translate(0,0) rotate(-45 260.3199975916261 331)" y="331" opacity="1"><tspan>Starcraft 2</tspan></text><text x="335.4109066825361" style="color:#666666;cursor:default;font-size:11px;fill:#666666;" text-anchor="end" transform="translate(0,0) rotate(-45 335.4109066825361 331)" y="331" opacity="1">Northgard</text><text x="410.5018157734461" style="color:#666666;cursor:default;font-size:11px;fill:#666666;" text-anchor="end" transform="translate(0,0) rotate(-45 410.5018157734461 331)" y="331" opacity="1"><tspan>Total War: Warhammer 2</tspan></text><text x="485.59272486434605" style="color:#666666;cursor:default;font-size:11px;fill:#666666;" text-anchor="end" transform="translate(0,0) rotate(-45 485.59272486434605 331)" y="331" opacity="1"><tspan>XCOM 2</tspan></text><text x="560.6836339552561" style="color:#666666;cursor:default;font-size:11px;fill:#666666;" text-anchor="end" transform="translate(0,0) rotate(-45 560.6836339552561 331)" y="331" opacity="1"><tspan>Company of Heroes 2</tspan></text><text x="635.7745430461662" style="color:#666666;cursor:default;font-size:11px;fill:#666666;" text-anchor="end" transform="translate(0,0) rotate(-45 635.7745430461662 331)" y="331" opacity="1">Hearthstone</text><text x="710.8654521370762" style="color:#666666;cursor:default;font-size:11px;fill:#666666;" text-anchor="end" transform="translate(0,0) rotate(-45 710.8654521370762 331)" y="331" opacity="1"><tspan>Europa Universalis 4</tspan></text><text x="785.9563612279861" style="color:#666666;cursor:default;font-size:11px;fill:#666666;" text-anchor="end" transform="translate(0,0) rotate(-45 785.9563612279861 331)" y="331" opacity="1"><tspan>Homeworld Remastered</tspan></text><text x="861.0472703188962" style="color:#666666;cursor:default;font-size:11px;fill:#666666;" text-anchor="end" transform="translate(0,0) rotate(-45 861.0472703188962 331)" y="331" opacity="1"><tspan>Cities: Skylines</tspan></text></g><g class="highcharts-axis-labels highcharts-yaxis-labels " data-z-index="7"><text x="55" style="color:#666666;cursor:default;font-size:11px;fill:#666666;" text-anchor="end" transform="translate(0,0)" y="320" opacity="1">0</text><text x="55" style="color:#666666;cursor:default;font-size:11px;fill:#666666;" text-anchor="end" transform="translate(0,0)" y="76" opacity="1">100</text><text x="55" style="color:#666666;cursor:default;font-size:11px;fill:#666666;" text-anchor="end" transform="translate(0,0)" y="259" opacity="1">25</text><text x="55" style="color:#666666;cursor:default;font-size:11px;fill:#666666;" text-anchor="end" transform="translate(0,0)" y="198" opacity="1">50</text><text x="55" style="color:#666666;cursor:default;font-size:11px;fill:#666666;" text-anchor="end" transform="translate(0,0)" y="137" opacity="1">75</text><text x="55" style="color:#666666;cursor:default;font-size:11px;fill:#666666;" text-anchor="end" transform="translate(0,0)" y="15" opacity="1">125</text></g></svg> 